<svg width="64" height="64" viewBox="0 0 35 35" xmlns="http://www.w3.org/2000/svg" xmlns:bx="https://boxy-svg.com">
  <defs>
    <linearGradient gradientUnits="userSpaceOnUse" x1="166.4" y1="109.201" x2="166.4" y2="138.505" id="gradient-0">
      <stop offset="0" style="stop-color: rgba(141, 83, 50, 1)"></stop>
      <stop offset="1" style="stop-color: rgba(66, 39, 23, 1)"></stop>
    </linearGradient>
  </defs>
  <path d="M 166.4 107.184 L 183.549 119.771 L 176.998 140.137 L 155.802 140.137 L 149.251 119.771 Z" style="paint-order: fill; fill: rgba(0, 0, 0, 0); stroke: rgb(241, 24, 107); stroke-width: 2px;" transform="matrix(-0.306261, 0.951948, -0.951948, -0.306261, 187.771028, -104.489933)" bx:shape="n-gon 166.4 125.4 18.031 18.216 5 0 1@fb04962d"></path>
  <path d="M 15.169 20.82 L 14.225 18.034 L 8.612 18.034 C 8.514 18.314 8.408 18.617 8.295 18.945 C 8.186 19.273 8.077 19.595 7.972 19.908 C 7.867 20.222 7.765 20.515 7.667 20.787 C 7.569 21.062 7.493 21.289 7.439 21.471 C 7.243 21.554 7.013 21.596 6.748 21.596 C 6.523 21.596 6.323 21.537 6.149 21.419 C 5.975 21.299 5.888 21.107 5.888 20.842 C 5.888 20.714 5.909 20.585 5.95 20.452 C 5.992 20.32 6.041 20.177 6.098 20.023 C 6.306 19.437 6.574 18.683 6.903 17.762 C 7.231 16.84 7.588 15.859 7.972 14.817 C 8.357 13.775 8.747 12.728 9.145 11.674 C 9.544 10.621 9.911 9.675 10.244 8.837 C 10.357 8.78 10.524 8.724 10.748 8.668 C 10.971 8.611 11.202 8.583 11.439 8.583 C 11.718 8.583 11.988 8.625 12.247 8.708 C 12.505 8.794 12.669 8.934 12.74 9.127 C 13.076 9.938 13.434 10.864 13.817 11.906 C 14.201 12.945 14.59 14.009 14.983 15.1 C 15.372 16.19 15.746 17.264 16.103 18.316 C 16.459 19.37 16.776 20.324 17.055 21.177 C 16.943 21.302 16.81 21.404 16.658 21.481 C 16.504 21.558 16.329 21.596 16.133 21.596 C 15.868 21.596 15.666 21.537 15.526 21.419 C 15.387 21.299 15.268 21.1 15.169 20.82 Z M 11.501 10.009 L 11.421 10.009 C 11.266 10.428 11.09 10.906 10.895 11.443 C 10.699 11.982 10.497 12.544 10.288 13.13 C 10.077 13.718 9.868 14.312 9.659 14.913 C 9.449 15.513 9.253 16.086 9.071 16.629 L 13.787 16.629 C 13.577 16.003 13.36 15.37 13.137 14.732 C 12.914 14.098 12.7 13.486 12.498 12.899 C 12.297 12.313 12.108 11.772 11.93 11.277 C 11.758 10.781 11.614 10.357 11.501 10.009 Z M 23.364 16.88 L 21.246 16.88 L 21.246 21.387 C 21.162 21.413 21.051 21.445 20.911 21.481 C 20.771 21.517 20.617 21.534 20.448 21.534 C 19.835 21.534 19.529 21.274 19.529 20.758 L 19.529 9.612 C 19.529 9.387 19.585 9.215 19.694 9.098 C 19.807 8.977 19.983 8.883 20.22 8.815 C 20.624 8.69 21.115 8.599 21.694 8.543 C 22.274 8.486 22.837 8.458 23.382 8.458 C 25.156 8.458 26.452 8.832 27.271 9.58 C 28.087 10.326 28.495 11.337 28.495 12.608 C 28.495 13.907 28.076 14.944 27.237 15.718 C 26.4 16.492 25.108 16.88 23.364 16.88 Z M 21.224 15.457 L 23.257 15.457 C 24.375 15.457 25.241 15.227 25.856 14.766 C 26.471 14.305 26.778 13.592 26.778 12.626 C 26.778 11.678 26.482 10.984 25.888 10.542 C 25.293 10.103 24.444 9.884 23.341 9.884 C 22.964 9.884 22.59 9.901 22.22 9.935 C 21.85 9.971 21.518 10.016 21.224 10.072 L 21.224 15.457 Z" style="fill: rgb(244, 67, 8); stroke-width: 4px;"></path>
</svg>